#N canvas 236 304 646 364 10;
#X obj 66 77 noise~;
#X obj 66 143 *~;
#X obj 67 322 dac~;
#X obj 65 266 *~ 0;
#X obj 98 251 hsl 128 15 0 10 0 1 empty empty Volume_0-10 -2 -6 0 8
-262144 -1 -1 12700 1;
#N canvas 0 0 450 300 (subpatch) 0;
#X array noise 5000 float 0;
#X coords 0 1 4999 -1 200 80 1;
#X restore 381 102 graph;
#N canvas 0 0 450 300 (subpatch) 0;
#X array line 441 float 0;
#X coords 0 1 440 -1 200 80 1;
#X restore 381 19 graph;
#X obj 246 11 bng 15 250 50 0 empty empty empty 0 -6 0 8 -241291 -1
-1;
#X obj 247 32 s \$0-trigger;
#N canvas 0 0 450 300 (subpatch) 0;
#X array noise_and_line 5000 float 0;
#X coords 0 1 4999 -1 200 80 1;
#X restore 381 186 graph;
#X obj 146 126 *~;
#N canvas 0 0 615 324 tabwrites 0;
#X obj 113 88 tabwrite~ noise;
#X obj 226 88 tabwrite~ line;
#X obj 334 89 tabwrite~ noise_and_line;
#X obj 18 38 r \$0-trigger;
#X msg 230 181 \; line resize \$1 \; noise resize \$1 \; noise_and_line
resize \$1;
#X msg 230 160 5000;
#X obj 114 36 inlet~;
#X obj 226 35 inlet~;
#X obj 333 47 inlet~;
#X connect 3 0 1 0;
#X connect 3 0 0 0;
#X connect 3 0 2 0;
#X connect 5 0 4 0;
#X connect 6 0 0 0;
#X connect 7 0 1 0;
#X connect 8 0 2 0;
#X restore 101 212 pd tabwrites;
#X obj 67 167 lop~ 90;
#X obj 66 294 clip~ -1 1;
#X obj 171 102 osc~ 80;
#X obj 151 75 vline~;
#X msg 156 51 1 50 \, 0.5 100 400 \, 0 250 100;
#X obj 63 115 bp~ 120 15;
#X connect 0 0 17 0;
#X connect 1 0 12 0;
#X connect 3 0 13 0;
#X connect 4 0 3 1;
#X connect 7 0 8 0;
#X connect 7 0 16 0;
#X connect 10 0 1 1;
#X connect 10 0 11 1;
#X connect 12 0 3 0;
#X connect 12 0 11 2;
#X connect 13 0 2 0;
#X connect 13 0 2 1;
#X connect 14 0 10 1;
#X connect 15 0 10 0;
#X connect 16 0 15 0;
#X connect 17 0 1 0;
#X connect 17 0 11 0;
