#N canvas 236 304 646 364 10;
#X obj 66 77 noise~;
#X obj 157 80 line~;
#X obj 66 143 *~;
#X obj 57 293 dac~;
#X obj 65 266 *~ 0;
#X obj 98 252 hsl 128 15 0 1 0 0 empty empty Volume_0-1 -2 -6 0 8 -262144
-1 -1 12700 1;
#N canvas 0 0 450 300 (subpatch) 0;
#X array noise 5000 float 0;
#X coords 0 1 4999 -1 200 80 1;
#X restore 381 102 graph;
#N canvas 0 0 450 300 (subpatch) 0;
#X array line 5000 float 0;
#X coords 0 1 4999 -1 200 80 1;
#X restore 381 19 graph;
#X obj 247 11 bng 15 250 50 0 empty bangSnareDrum empty 0 -6 0 8 -241291
-1 -1;
#X obj 67 167 lop~ 400;
#X floatatom 193 138 5 0 0 0 - - -, f 5;
#X obj 247 32 s \$0-trigger;
#N canvas 0 0 450 300 (subpatch) 0;
#X array noise_and_line 5000 float 0;
#X coords 0 1 4999 -1 200 80 1;
#X restore 381 186 graph;
#X obj 148 103 *~;
#X obj 146 126 *~;
#N canvas 0 0 615 324 tabwrites 0;
#X obj 113 88 tabwrite~ noise;
#X obj 226 88 tabwrite~ line;
#X obj 334 89 tabwrite~ noise_and_line;
#X obj 18 38 r \$0-trigger;
#X msg 230 181 \; line resize \$1 \; noise resize \$1 \; noise_and_line
resize \$1;
#X msg 230 160 5000;
#X obj 114 36 inlet~;
#X obj 226 35 inlet~;
#X obj 333 47 inlet~;
#X connect 3 0 1 0;
#X connect 3 0 0 0;
#X connect 3 0 2 0;
#X connect 5 0 4 0;
#X connect 6 0 0 0;
#X connect 7 0 1 0;
#X connect 8 0 2 0;
#X restore 101 212 pd tabwrites;
#X obj 178 106 osc~ 400;
#X msg 156 52 1 \, 0 150;
#X connect 0 0 2 0;
#X connect 0 0 15 0;
#X connect 1 0 13 0;
#X connect 1 0 13 1;
#X connect 2 0 9 0;
#X connect 4 0 3 0;
#X connect 4 0 3 1;
#X connect 5 0 4 1;
#X connect 8 0 11 0;
#X connect 8 0 17 0;
#X connect 9 0 4 0;
#X connect 9 0 15 2;
#X connect 10 0 9 1;
#X connect 13 0 14 0;
#X connect 13 0 14 1;
#X connect 14 0 2 1;
#X connect 14 0 15 1;
#X connect 16 0 14 1;
#X connect 17 0 1 0;
